<svg id="visual" viewBox="0 0 960 540" width="960" height="540" xmlns="http://www.w3.org/2000/svg" xmlns:xlink="http://www.w3.org/1999/xlink" version="1.1"><path d="M0 28L69 28L69 17L137 17L137 28L206 28L206 33L274 33L274 23L343 23L343 12L411 12L411 39L480 39L480 23L549 23L549 28L617 28L617 17L686 17L686 33L754 33L754 17L823 17L823 12L891 12L891 28L960 28L960 12L960 0L960 0L891 0L891 0L823 0L823 0L754 0L754 0L686 0L686 0L617 0L617 0L549 0L549 0L480 0L480 0L411 0L411 0L343 0L343 0L274 0L274 0L206 0L206 0L137 0L137 0L69 0L69 0L0 0Z" fill="#fcff82"></path><path d="M0 55L69 55L69 93L137 93L137 55L206 55L206 71L274 71L274 82L343 82L343 33L411 33L411 77L480 77L480 50L549 50L549 55L617 55L617 93L686 93L686 77L754 77L754 82L823 82L823 28L891 28L891 98L960 98L960 28L960 10L960 26L891 26L891 10L823 10L823 15L754 15L754 31L686 31L686 15L617 15L617 26L549 26L549 21L480 21L480 37L411 37L411 10L343 10L343 21L274 21L274 31L206 31L206 26L137 26L137 15L69 15L69 26L0 26Z" fill="#ffe26b"></path><path d="M0 293L69 293L69 190L137 190L137 179L206 179L206 271L274 271L274 125L343 125L343 185L411 185L411 206L480 206L480 190L549 190L549 114L617 114L617 195L686 195L686 239L754 239L754 276L823 276L823 168L891 168L891 201L960 201L960 206L960 26L960 96L891 96L891 26L823 26L823 80L754 80L754 75L686 75L686 91L617 91L617 53L549 53L549 48L480 48L480 75L411 75L411 31L343 31L343 80L274 80L274 69L206 69L206 53L137 53L137 91L69 91L69 53L0 53Z" fill="#ffc55c"></path><path d="M0 336L69 336L69 249L137 249L137 206L206 206L206 287L274 287L274 163L343 163L343 217L411 217L411 239L480 239L480 239L549 239L549 125L617 125L617 228L686 228L686 276L754 276L754 314L823 314L823 222L891 222L891 239L960 239L960 233L960 204L960 199L891 199L891 166L823 166L823 274L754 274L754 237L686 237L686 193L617 193L617 112L549 112L549 188L480 188L480 204L411 204L411 183L343 183L343 123L274 123L274 269L206 269L206 177L137 177L137 188L69 188L69 291L0 291Z" fill="#fda953"></path><path d="M0 363L69 363L69 260L137 260L137 255L206 255L206 298L274 298L274 206L343 206L343 244L411 244L411 276L480 276L480 255L549 255L549 174L617 174L617 255L686 255L686 325L754 325L754 341L823 341L823 266L891 266L891 282L960 282L960 282L960 231L960 237L891 237L891 220L823 220L823 312L754 312L754 274L686 274L686 226L617 226L617 123L549 123L549 237L480 237L480 237L411 237L411 215L343 215L343 161L274 161L274 285L206 285L206 204L137 204L137 247L69 247L69 334L0 334Z" fill="#f68c51"></path><path d="M0 401L69 401L69 303L137 303L137 336L206 336L206 384L274 384L274 271L343 271L343 325L411 325L411 314L480 314L480 330L549 330L549 195L617 195L617 314L686 314L686 368L754 368L754 395L823 395L823 320L891 320L891 303L960 303L960 303L960 280L960 280L891 280L891 264L823 264L823 339L754 339L754 323L686 323L686 253L617 253L617 172L549 172L549 253L480 253L480 274L411 274L411 242L343 242L343 204L274 204L274 296L206 296L206 253L137 253L137 258L69 258L69 361L0 361Z" fill="#eb7053"></path><path d="M0 433L69 433L69 374L137 374L137 444L206 444L206 411L274 411L274 341L343 341L343 422L411 422L411 368L480 368L480 384L549 384L549 314L617 314L617 379L686 379L686 455L754 455L754 449L823 449L823 438L891 438L891 341L960 341L960 433L960 301L960 301L891 301L891 318L823 318L823 393L754 393L754 366L686 366L686 312L617 312L617 193L549 193L549 328L480 328L480 312L411 312L411 323L343 323L343 269L274 269L274 382L206 382L206 334L137 334L137 301L69 301L69 399L0 399Z" fill="#dc5556"></path><path d="M0 465L69 465L69 390L137 390L137 460L206 460L206 471L274 471L274 401L343 401L343 487L411 487L411 428L480 428L480 433L549 433L549 341L617 341L617 406L686 406L686 476L754 476L754 498L823 498L823 482L891 482L891 379L960 379L960 482L960 431L960 339L891 339L891 436L823 436L823 447L754 447L754 453L686 453L686 377L617 377L617 312L549 312L549 382L480 382L480 366L411 366L411 420L343 420L343 339L274 339L274 409L206 409L206 442L137 442L137 372L69 372L69 431L0 431Z" fill="#c83b5b"></path><path d="M0 541L69 541L69 541L137 541L137 541L206 541L206 541L274 541L274 541L343 541L343 541L411 541L411 541L480 541L480 541L549 541L549 541L617 541L617 541L686 541L686 541L754 541L754 541L823 541L823 541L891 541L891 541L960 541L960 541L960 480L960 377L891 377L891 480L823 480L823 496L754 496L754 474L686 474L686 404L617 404L617 339L549 339L549 431L480 431L480 426L411 426L411 485L343 485L343 399L274 399L274 469L206 469L206 458L137 458L137 388L69 388L69 463L0 463Z" fill="#b0235f"></path></svg>