<svg id="visual" viewBox="0 0 1000 1000" width="1000" height="1000" xmlns="http://www.w3.org/2000/svg" xmlns:xlink="http://www.w3.org/1999/xlink" version="1.1"><path d="M0 51L71 51L71 31L143 31L143 51L214 51L214 61L286 61L286 41L357 41L357 21L429 21L429 71L500 71L500 41L571 41L571 51L643 51L643 31L714 31L714 61L786 61L786 31L857 31L857 21L929 21L929 51L1000 51L1000 21L1000 0L1000 0L929 0L929 0L857 0L857 0L786 0L786 0L714 0L714 0L643 0L643 0L571 0L571 0L500 0L500 0L429 0L429 0L357 0L357 0L286 0L286 0L214 0L214 0L143 0L143 0L71 0L71 0L0 0Z" fill="#fcff82"></path><path d="M0 101L71 101L71 171L143 171L143 101L214 101L214 131L286 131L286 151L357 151L357 61L429 61L429 141L500 141L500 91L571 91L571 101L643 101L643 171L714 171L714 141L786 141L786 151L857 151L857 51L929 51L929 181L1000 181L1000 51L1000 19L1000 49L929 49L929 19L857 19L857 29L786 29L786 59L714 59L714 29L643 29L643 49L571 49L571 39L500 39L500 69L429 69L429 19L357 19L357 39L286 39L286 59L214 59L214 49L143 49L143 29L71 29L71 49L0 49Z" fill="#ffe26b"></path><path d="M0 541L71 541L71 351L143 351L143 331L214 331L214 501L286 501L286 231L357 231L357 341L429 341L429 381L500 381L500 351L571 351L571 211L643 211L643 361L714 361L714 441L786 441L786 511L857 511L857 311L929 311L929 371L1000 371L1000 381L1000 49L1000 179L929 179L929 49L857 49L857 149L786 149L786 139L714 139L714 169L643 169L643 99L571 99L571 89L500 89L500 139L429 139L429 59L357 59L357 149L286 149L286 129L214 129L214 99L143 99L143 169L71 169L71 99L0 99Z" fill="#ffc55c"></path><path d="M0 621L71 621L71 461L143 461L143 381L214 381L214 531L286 531L286 301L357 301L357 401L429 401L429 441L500 441L500 441L571 441L571 231L643 231L643 421L714 421L714 511L786 511L786 581L857 581L857 411L929 411L929 441L1000 441L1000 431L1000 379L1000 369L929 369L929 309L857 309L857 509L786 509L786 439L714 439L714 359L643 359L643 209L571 209L571 349L500 349L500 379L429 379L429 339L357 339L357 229L286 229L286 499L214 499L214 329L143 329L143 349L71 349L71 539L0 539Z" fill="#fda953"></path><path d="M0 671L71 671L71 481L143 481L143 471L214 471L214 551L286 551L286 381L357 381L357 451L429 451L429 511L500 511L500 471L571 471L571 321L643 321L643 471L714 471L714 601L786 601L786 631L857 631L857 491L929 491L929 521L1000 521L1000 521L1000 429L1000 439L929 439L929 409L857 409L857 579L786 579L786 509L714 509L714 419L643 419L643 229L571 229L571 439L500 439L500 439L429 439L429 399L357 399L357 299L286 299L286 529L214 529L214 379L143 379L143 459L71 459L71 619L0 619Z" fill="#f68c51"></path><path d="M0 741L71 741L71 561L143 561L143 621L214 621L214 711L286 711L286 501L357 501L357 601L429 601L429 581L500 581L500 611L571 611L571 361L643 361L643 581L714 581L714 681L786 681L786 731L857 731L857 591L929 591L929 561L1000 561L1000 561L1000 519L1000 519L929 519L929 489L857 489L857 629L786 629L786 599L714 599L714 469L643 469L643 319L571 319L571 469L500 469L500 509L429 509L429 449L357 449L357 379L286 379L286 549L214 549L214 469L143 469L143 479L71 479L71 669L0 669Z" fill="#eb7053"></path><path d="M0 801L71 801L71 691L143 691L143 821L214 821L214 761L286 761L286 631L357 631L357 781L429 781L429 681L500 681L500 711L571 711L571 581L643 581L643 701L714 701L714 841L786 841L786 831L857 831L857 811L929 811L929 631L1000 631L1000 801L1000 559L1000 559L929 559L929 589L857 589L857 729L786 729L786 679L714 679L714 579L643 579L643 359L571 359L571 609L500 609L500 579L429 579L429 599L357 599L357 499L286 499L286 709L214 709L214 619L143 619L143 559L71 559L71 739L0 739Z" fill="#dc5556"></path><path d="M0 861L71 861L71 721L143 721L143 851L214 851L214 871L286 871L286 741L357 741L357 901L429 901L429 791L500 791L500 801L571 801L571 631L643 631L643 751L714 751L714 881L786 881L786 921L857 921L857 891L929 891L929 701L1000 701L1000 891L1000 799L1000 629L929 629L929 809L857 809L857 829L786 829L786 839L714 839L714 699L643 699L643 579L571 579L571 709L500 709L500 679L429 679L429 779L357 779L357 629L286 629L286 759L214 759L214 819L143 819L143 689L71 689L71 799L0 799Z" fill="#c83b5b"></path><path d="M0 1001L71 1001L71 1001L143 1001L143 1001L214 1001L214 1001L286 1001L286 1001L357 1001L357 1001L429 1001L429 1001L500 1001L500 1001L571 1001L571 1001L643 1001L643 1001L714 1001L714 1001L786 1001L786 1001L857 1001L857 1001L929 1001L929 1001L1000 1001L1000 1001L1000 889L1000 699L929 699L929 889L857 889L857 919L786 919L786 879L714 879L714 749L643 749L643 629L571 629L571 799L500 799L500 789L429 789L429 899L357 899L357 739L286 739L286 869L214 869L214 849L143 849L143 719L71 719L71 859L0 859Z" fill="#b0235f"></path></svg>